<?xml version="1.0" encoding="UTF-8"?>
<svg width="17px" height="17px" viewBox="0 0 17 17" version="1.1" xmlns="http://www.w3.org/2000/svg" xmlns:xlink="http://www.w3.org/1999/xlink">
    <!-- Generator: Sketch 51.2 (57519) - http://www.bohemiancoding.com/sketch -->
    <title>Fill 1</title>
    <desc>Created with Sketch.</desc>
    <defs></defs>
    <g id="Page-1" stroke="none" stroke-width="1" fill="none" fill-rule="evenodd">
        <g id="Artboard-Copy-2" transform="translate(-292.000000, -307.000000)" fill="#3366CC">
            <g id="Group-3" transform="translate(250.000000, 149.000000)">
                <g id="Group" transform="translate(27.000000, 147.000000)">
                    <path d="M18.4236111,18.3619444 C19.7836111,21.0347222 21.97,23.2211111 24.6475,24.5811111 L26.7252778,22.4986111 C26.985,22.2388889 27.3580556,22.1633333 27.6838889,22.2672222 C28.7416667,22.6166667 29.8797222,22.8055556 31.0555556,22.8055556 C31.5797222,22.8055556 32,23.2258333 32,23.75 L32,27.0555556 C32,27.5797227 31.5797222,28 31.0555556,28 C22.1872222,28 15,20.8127778 15,11.9444444 C15,11.4202778 15.425,11 15.9444444,11 L19.25,11 C19.7741667,11 20.1944444,11.4202778 20.1944444,11.9444444 C20.1944444,13.1202778 20.3833333,14.2583333 20.7327778,15.3161111 C20.8366667,15.6419444 20.7611111,16.015 20.5013889,16.2747222 L18.4236111,18.3619444 Z" id="Fill-1"></path>
                </g>
            </g>
        </g>
    </g>
</svg>